<mxfile host="app.diagrams.net" agent="Mozilla/5.0 (Windows NT 10.0; Win64; x64) AppleWebKit/537.36 (KHTML, like Gecko) Chrome/141.0.0.0 Safari/537.36 Edg/141.0.0.0" version="28.2.7">
  <diagram id="C5RBs43oDa-KdzZeNtuy" name="Page-1">
    <mxGraphModel dx="1034" dy="698" grid="1" gridSize="10" guides="1" tooltips="1" connect="1" arrows="1" fold="1" page="1" pageScale="1" pageWidth="827" pageHeight="1169" math="0" shadow="0">
      <root>
        <mxCell id="WIyWlLk6GJQsqaUBKTNV-0" />
        <mxCell id="WIyWlLk6GJQsqaUBKTNV-1" parent="WIyWlLk6GJQsqaUBKTNV-0" />
        <mxCell id="1TLW6MpRuJxCBeh3q2ZN-0" value="" style="strokeWidth=1;shadow=0;dashed=0;align=center;html=1;shape=mxgraph.mockup.containers.browserWindow;rSize=0;strokeColor=#666666;strokeColor2=#008cff;strokeColor3=#c4c4c4;mainText=,;recursiveResize=0;container=0;" vertex="1" parent="WIyWlLk6GJQsqaUBKTNV-1">
          <mxGeometry x="110" y="130" width="550" height="380" as="geometry" />
        </mxCell>
        <mxCell id="1TLW6MpRuJxCBeh3q2ZN-1" value="Big Bite" style="strokeWidth=1;shadow=0;dashed=0;align=center;html=1;shape=mxgraph.mockup.containers.anchor;fontSize=17;fontColor=#666666;align=left;whiteSpace=wrap;" vertex="1" parent="WIyWlLk6GJQsqaUBKTNV-1">
          <mxGeometry x="170" y="142" width="110" height="26" as="geometry" />
        </mxCell>
        <mxCell id="1TLW6MpRuJxCBeh3q2ZN-2" value="https://www.draw.io/Retiro Pedidos" style="strokeWidth=1;shadow=0;dashed=0;align=center;html=1;shape=mxgraph.mockup.containers.anchor;rSize=0;fontSize=17;fontColor=#666666;align=left;" vertex="1" parent="WIyWlLk6GJQsqaUBKTNV-1">
          <mxGeometry x="240" y="190" width="250" height="26" as="geometry" />
        </mxCell>
        <mxCell id="1TLW6MpRuJxCBeh3q2ZN-3" value="Pedidos en Local" style="strokeWidth=1;shadow=0;dashed=0;align=center;html=1;shape=mxgraph.mockup.text.textBox;fontColor=#666666;align=left;fontSize=17;spacingLeft=4;spacingTop=-3;whiteSpace=wrap;strokeColor=#666666;mainText=" vertex="1" parent="WIyWlLk6GJQsqaUBKTNV-1">
          <mxGeometry x="110" y="240" width="550" height="30" as="geometry" />
        </mxCell>
        <mxCell id="1TLW6MpRuJxCBeh3q2ZN-17" value="" style="verticalLabelPosition=bottom;shadow=0;dashed=0;align=center;html=1;verticalAlign=top;strokeWidth=1;shape=mxgraph.mockup.navigation.scrollBar;strokeColor=#999999;barPos=20;fillColor2=#99ddff;strokeColor2=none;direction=north;" vertex="1" parent="WIyWlLk6GJQsqaUBKTNV-1">
          <mxGeometry x="640" y="270" width="20" height="240" as="geometry" />
        </mxCell>
        <mxCell id="1TLW6MpRuJxCBeh3q2ZN-34" value="&lt;font style=&quot;font-size: 16px;&quot;&gt;Registro Pedidos&lt;/font&gt;" style="rounded=0;whiteSpace=wrap;html=1;" vertex="1" parent="WIyWlLk6GJQsqaUBKTNV-1">
          <mxGeometry x="110" y="270" width="530" height="30" as="geometry" />
        </mxCell>
        <mxCell id="1TLW6MpRuJxCBeh3q2ZN-35" value="&lt;font style=&quot;font-size: 14px;&quot;&gt;Pedido&lt;/font&gt;" style="rounded=0;whiteSpace=wrap;html=1;" vertex="1" parent="WIyWlLk6GJQsqaUBKTNV-1">
          <mxGeometry x="110" y="300" width="100" height="30" as="geometry" />
        </mxCell>
        <mxCell id="1TLW6MpRuJxCBeh3q2ZN-36" value="&lt;font style=&quot;font-size: 14px;&quot;&gt;1&lt;/font&gt;" style="rounded=0;whiteSpace=wrap;html=1;" vertex="1" parent="WIyWlLk6GJQsqaUBKTNV-1">
          <mxGeometry x="110" y="330" width="100" height="30" as="geometry" />
        </mxCell>
        <mxCell id="1TLW6MpRuJxCBeh3q2ZN-39" value="&lt;font style=&quot;font-size: 14px;&quot;&gt;Estado&lt;/font&gt;" style="rounded=0;whiteSpace=wrap;html=1;" vertex="1" parent="WIyWlLk6GJQsqaUBKTNV-1">
          <mxGeometry x="504" y="300" width="136" height="30" as="geometry" />
        </mxCell>
        <mxCell id="1TLW6MpRuJxCBeh3q2ZN-43" value="&lt;font style=&quot;font-size: 14px;&quot;&gt;Fecha&lt;/font&gt;" style="rounded=0;whiteSpace=wrap;html=1;" vertex="1" parent="WIyWlLk6GJQsqaUBKTNV-1">
          <mxGeometry x="210" y="300" width="148" height="30" as="geometry" />
        </mxCell>
        <mxCell id="1TLW6MpRuJxCBeh3q2ZN-44" value="&lt;font style=&quot;font-size: 14px;&quot;&gt;Confirmado&lt;/font&gt;" style="rounded=0;whiteSpace=wrap;html=1;" vertex="1" parent="WIyWlLk6GJQsqaUBKTNV-1">
          <mxGeometry x="356" y="300" width="148" height="30" as="geometry" />
        </mxCell>
        <mxCell id="1TLW6MpRuJxCBeh3q2ZN-47" value="Si" style="rounded=0;whiteSpace=wrap;html=1;" vertex="1" parent="WIyWlLk6GJQsqaUBKTNV-1">
          <mxGeometry x="356" y="330" width="148" height="30" as="geometry" />
        </mxCell>
        <mxCell id="1TLW6MpRuJxCBeh3q2ZN-48" value="&lt;font style=&quot;font-size: 14px;&quot;&gt;Retirado&lt;/font&gt;" style="rounded=0;whiteSpace=wrap;html=1;" vertex="1" parent="WIyWlLk6GJQsqaUBKTNV-1">
          <mxGeometry x="504" y="330" width="136" height="30" as="geometry" />
        </mxCell>
        <mxCell id="1TLW6MpRuJxCBeh3q2ZN-49" value="&lt;font style=&quot;font-size: 14px;&quot;&gt;10/23/2014&lt;/font&gt;" style="rounded=0;whiteSpace=wrap;html=1;" vertex="1" parent="WIyWlLk6GJQsqaUBKTNV-1">
          <mxGeometry x="210" y="330" width="146" height="30" as="geometry" />
        </mxCell>
        <mxCell id="1TLW6MpRuJxCBeh3q2ZN-50" value="&lt;span style=&quot;font-size: 14px;&quot;&gt;10/23/2014&lt;/span&gt;" style="rounded=0;whiteSpace=wrap;html=1;" vertex="1" parent="WIyWlLk6GJQsqaUBKTNV-1">
          <mxGeometry x="210" y="360" width="146" height="30" as="geometry" />
        </mxCell>
        <mxCell id="1TLW6MpRuJxCBeh3q2ZN-51" value="No" style="rounded=0;whiteSpace=wrap;html=1;" vertex="1" parent="WIyWlLk6GJQsqaUBKTNV-1">
          <mxGeometry x="356" y="360" width="148" height="30" as="geometry" />
        </mxCell>
        <mxCell id="1TLW6MpRuJxCBeh3q2ZN-52" value="&lt;font style=&quot;font-size: 14px;&quot;&gt;No Retirado&lt;/font&gt;" style="rounded=0;whiteSpace=wrap;html=1;" vertex="1" parent="WIyWlLk6GJQsqaUBKTNV-1">
          <mxGeometry x="504" y="360" width="136" height="30" as="geometry" />
        </mxCell>
        <mxCell id="1TLW6MpRuJxCBeh3q2ZN-53" value="&lt;font style=&quot;font-size: 14px;&quot;&gt;2&lt;/font&gt;" style="rounded=0;whiteSpace=wrap;html=1;" vertex="1" parent="WIyWlLk6GJQsqaUBKTNV-1">
          <mxGeometry x="110" y="360" width="100" height="30" as="geometry" />
        </mxCell>
      </root>
    </mxGraphModel>
  </diagram>
</mxfile>
